<svg width="24" height="29" viewBox="0 0 24 29" fill="none" xmlns="http://www.w3.org/2000/svg">
<path d="M6.8701 0.796949C6.68882 0.513314 6.34863 0.324219 6.01231 0.324219H0.77487C0.351724 0.324219 0.0985246 0.793174 0.325165 1.14867L8.69162 14.0865C8.73697 14.1583 8.73697 14.249 8.69162 14.3209L0.325165 27.2624C0.0946411 27.618 0.351731 28.0868 0.771149 28.0868H6.03126C6.36758 28.0868 6.67748 27.9167 6.85876 27.6368L15.0287 14.9373C15.3158 14.4911 15.3158 13.9162 15.0287 13.4699L6.8701 0.796949Z" fill="#FE5000"/>
<path d="M16.7065 16.0753C16.6195 15.943 16.4267 15.943 16.3399 16.0753L13.6078 20.3186C13.3205 20.7649 13.3205 21.3396 13.6078 21.7859L17.3148 27.5419C17.534 27.8824 17.908 28.0865 18.3086 28.0865H23.4594C23.8819 28.0865 24.1398 27.6175 23.9083 27.2621L16.7065 16.0753Z" fill="#50007F"/>
<path d="M17.3187 0.864903L13.6117 6.62089C13.3244 7.06719 13.3244 7.64194 13.6117 8.08823L16.3436 12.3352C16.4269 12.4676 16.6195 12.4676 16.7026 12.3352L23.9161 1.12963C24.1398 0.781703 23.8897 0.320312 23.4781 0.320312H18.3124C17.9082 0.324087 17.534 0.528313 17.3187 0.864903Z" fill="#50007F"/>
</svg>
