<svg width="160" height="50" viewBox="0 0 160 50" fill="none" xmlns="http://www.w3.org/2000/svg">
<g clip-path="url(#clip0_520_2897)">
<path d="M22.7032 9.32422H18.1195C17.8248 9.32422 17.5829 9.56625 17.5829 9.86124L17.6887 27.0082C17.6887 27.1179 17.5489 27.1558 17.4885 27.0649L6.34088 9.74401C6.17462 9.48305 5.88364 9.32422 5.57378 9.32422H0.536593C0.241844 9.32422 0 9.56625 0 9.86124V36.5498C0 36.8448 0.241844 37.0868 0.536593 37.0868H5.12031C5.41507 37.0868 5.65692 36.8448 5.65692 36.5498V19.5693C5.65692 19.4633 5.79672 19.4217 5.85341 19.5126L16.8952 36.6671C17.0614 36.928 17.3524 37.0868 17.6623 37.0868H22.6995C22.9942 37.0868 23.236 36.8448 23.236 36.5498V9.86124C23.236 9.56248 22.9979 9.32422 22.7032 9.32422Z" fill="#FE5000"/>
<path d="M99.6893 20.0116C98.2799 18.2379 96.005 17.3379 93.5413 17.3379C93.0726 17.3379 92.3622 17.4249 91.8445 17.5874C91.3117 17.7539 90.5106 18.1963 90.0307 18.6615C89.9627 18.7296 89.8456 18.6766 89.8456 18.582V18.2379C89.8456 17.9429 89.6037 17.7009 89.3089 17.7009H84.7857C84.4909 17.7009 84.2491 17.9429 84.2491 18.2379V36.5497C84.2491 36.8447 84.4909 37.0867 84.7857 37.0867H89.3128C89.6074 37.0867 89.8493 36.8447 89.8493 36.5497C89.8493 36.5497 89.8682 25.3895 89.8682 25.2759C89.8682 23.5363 91.3003 22.5076 92.9291 22.5076C94.9016 22.5076 95.903 23.9106 96.0088 25.4612C96.0088 25.4726 96.0126 36.5497 96.0126 36.5497C96.0126 36.8447 96.2544 37.0867 96.5491 37.0867H101.072C101.367 37.0867 101.609 36.8447 101.609 36.5497V27.0648C101.605 23.8199 101.027 21.6946 99.6893 20.0116Z" fill="#FE5000"/>
<path d="M80.6781 17.7009H76.1625C75.8639 17.7009 75.6221 17.9429 75.6221 18.2417V18.5745C75.6221 18.6653 75.52 18.7182 75.4445 18.6653C74.2239 17.784 72.7199 17.3037 71.2726 17.3037C68.7672 17.3037 66.5378 18.1585 64.6408 19.849C62.4415 21.8232 61.3268 24.3532 61.3268 27.3749C61.3268 29.9957 62.1883 32.28 63.8888 34.1708C65.8613 36.372 68.3441 37.4876 71.2726 37.4876C72.7275 37.4876 74.1294 37.0187 75.4559 36.2207C75.5314 36.1753 75.6221 36.2283 75.6221 36.3153V36.546C75.6221 36.8447 75.8639 37.0867 76.1625 37.0867H80.6781C80.9766 37.0867 81.2185 36.8447 81.2185 36.546V18.2417C81.2185 17.9429 80.9766 17.7009 80.6781 17.7009ZM71.3519 32.3027C70.1389 32.3027 69.1376 31.8904 68.2874 31.0357C67.422 30.1697 66.9836 28.9368 66.9836 27.3749C66.9836 26.0399 67.3086 24.9432 67.9511 24.1225C68.8202 23.0182 69.9085 22.4849 71.2765 22.4849C72.5763 22.4849 73.5966 22.8896 74.394 23.7255C75.2518 24.6179 75.6862 25.8395 75.6862 27.3559C75.6862 28.6948 75.3652 29.8067 74.734 30.6538C73.8876 31.7618 72.7842 32.3027 71.3519 32.3027Z" fill="#FE5000"/>
<path d="M45.3421 17.7009H40.8264C40.528 17.7009 40.2861 17.9429 40.2861 18.2417V18.5745C40.2861 18.6653 40.1841 18.7182 40.1084 18.6653C38.8879 17.784 37.3839 17.3037 35.9366 17.3037C33.4313 17.3037 31.2019 18.1585 29.3049 19.849C27.1056 21.8232 25.9908 24.3532 25.9908 27.3749C25.9908 29.9957 26.8524 32.28 28.5529 34.1708C30.5254 36.372 33.008 37.4876 35.9366 37.4876C37.3915 37.4876 38.7935 37.0187 40.1198 36.2207C40.1954 36.1753 40.2861 36.2283 40.2861 36.3153V36.546C40.2861 36.8447 40.528 37.0867 40.8264 37.0867H45.3421C45.6407 37.0867 45.8826 36.8447 45.8826 36.546V18.2417C45.8863 17.9429 45.6407 17.7009 45.3421 17.7009ZM36.0197 32.3027C34.8068 32.3027 33.8054 31.8904 32.9552 31.0357C32.0898 30.1697 31.6514 28.9368 31.6514 27.3749C31.6514 26.0399 31.9764 24.9432 32.6189 24.1225C33.488 23.0182 34.5763 22.4849 35.9442 22.4849C37.2441 22.4849 38.2644 22.8896 39.0618 23.7255C39.9195 24.6179 40.3542 25.8395 40.3542 27.3559C40.3542 28.6948 40.0329 29.8067 39.4018 30.6538C38.5554 31.7618 37.4482 32.3027 36.0197 32.3027Z" fill="#FE5000"/>
<path d="M131.979 17.7009H127.464C127.165 17.7009 126.923 17.9429 126.923 18.2417V18.5745C126.923 18.6653 126.821 18.7182 126.746 18.6653C125.525 17.784 124.021 17.3037 122.574 17.3037C120.069 17.3037 117.839 18.1585 115.942 19.849C113.743 21.8232 112.628 24.3532 112.628 27.3749C112.628 29.9957 113.49 32.28 115.19 34.1708C117.163 36.372 119.645 37.4876 122.574 37.4876C124.029 37.4876 125.431 37.0187 126.757 36.2207C126.833 36.1753 126.923 36.2283 126.923 36.3153V36.546C126.923 36.8447 127.165 37.0867 127.464 37.0867H131.979C132.278 37.0867 132.52 36.8447 132.52 36.546V18.2417C132.52 17.9429 132.278 17.7009 131.979 17.7009ZM122.653 32.3027C121.44 32.3027 120.439 31.8904 119.589 31.0357C118.723 30.1697 118.285 28.9368 118.285 27.3749C118.285 26.0399 118.61 24.9432 119.252 24.1225C120.122 23.0182 121.21 22.4849 122.578 22.4849C123.878 22.4849 124.898 22.8896 125.695 23.7255C126.553 24.6179 126.988 25.8395 126.988 27.3559C126.988 28.6948 126.667 29.8067 126.035 30.6538C125.189 31.7618 124.082 32.3027 122.653 32.3027Z" fill="#FE5000"/>
<path d="M58.3489 17.7766C57.3439 17.7766 56.1686 18.2343 55.4846 18.7752C55.4128 18.8319 55.3071 18.7826 55.3071 18.6882V18.2343C55.3071 17.9393 55.0652 17.6973 54.7704 17.6973H50.2472C49.9525 17.6973 49.7106 17.9393 49.7106 18.2343V36.546C49.7106 36.841 49.9525 37.0831 50.2472 37.0831H54.7704C55.0652 37.0831 55.3071 36.841 55.3071 36.546V27.7268C55.3071 25.8434 55.5413 24.5387 55.9947 23.8542C56.4104 23.2452 57.2152 22.9352 58.3868 22.9352C58.7005 22.9352 59.218 22.9389 59.989 23.0145C60.2876 23.0411 60.5482 22.7612 60.5369 22.4549V18.4233C60.5369 18.1512 60.3329 17.9205 60.0608 17.8902C59.3958 17.8145 58.8176 17.7766 58.3489 17.7766Z" fill="#FE5000"/>
<path d="M110.127 10.3148C109.458 9.67191 108.664 9.34668 107.765 9.34668C106.835 9.34668 106.023 9.66435 105.343 10.2959C104.677 10.9388 104.341 11.7293 104.341 12.652C104.341 13.5975 104.677 14.4068 105.339 15.0422C105.985 15.6888 106.79 16.0179 107.727 16.0179C108.653 16.0179 109.461 15.6926 110.134 15.0422C110.78 14.3917 111.109 13.5975 111.109 12.6747C111.109 11.786 110.784 10.9994 110.142 10.33C110.134 10.3224 110.13 10.3186 110.127 10.3148Z" fill="#FE5000"/>
<path d="M109.979 17.7046H105.456C105.161 17.7046 104.919 17.9466 104.919 18.2416V37.4761C104.9 38.2778 104.545 40.9063 100.891 41.1597C100.611 41.1786 100.396 41.4167 100.396 41.7004V46.0496V46.0609V46.0723C100.396 46.076 100.396 46.076 100.396 46.0799C100.407 46.371 100.642 46.6017 100.933 46.6017H100.967C101.877 46.5563 110.059 45.9323 110.497 38.0244C110.508 37.9828 110.516 37.9374 110.516 37.8884V18.2453C110.516 17.9466 110.274 17.7046 109.979 17.7046Z" fill="#FE5000"/>
<path d="M142.87 9.79695C142.689 9.51331 142.349 9.32422 142.012 9.32422H136.775C136.352 9.32422 136.099 9.79317 136.325 10.1487L144.692 23.0865C144.737 23.1583 144.737 23.249 144.692 23.3209L136.325 36.2624C136.095 36.618 136.352 37.0868 136.771 37.0868H142.031C142.368 37.0868 142.677 36.9167 142.859 36.6368L151.029 23.9373C151.316 23.4911 151.316 22.9162 151.029 22.4699L142.87 9.79695Z" fill="#FE5000"/>
<path d="M152.706 25.0753C152.619 24.943 152.427 24.943 152.34 25.0753L149.608 29.3186C149.321 29.7649 149.321 30.3396 149.608 30.7859L153.315 36.5419C153.534 36.8824 153.908 37.0865 154.309 37.0865H159.459C159.882 37.0865 160.14 36.6175 159.908 36.2621L152.706 25.0753Z" fill="#50007F"/>
<path d="M153.319 9.8649L149.612 15.6209C149.324 16.0672 149.324 16.6419 149.612 17.0882L152.344 21.3352C152.427 21.4676 152.62 21.4676 152.703 21.3352L159.916 10.1296C160.14 9.7817 159.89 9.32031 159.478 9.32031H154.312C153.908 9.32409 153.534 9.52831 153.319 9.8649Z" fill="#50007F"/>
</g>
<defs>
<clipPath id="clip0_520_2897">
<rect width="160" height="49.7087" fill="white"/>
</clipPath>
</defs>
</svg>
